<svg width="58" height="58" viewBox="0 0 58 58" fill="none" xmlns="http://www.w3.org/2000/svg">
<path d="M34.4398 9.06161C31.0855 9.06163 27.835 10.2247 25.242 12.3527C22.6491 14.4806 20.8743 17.4418 20.2199 20.7317C19.5655 24.0216 20.0721 27.4366 21.6533 30.3948C23.2346 33.3531 25.7926 35.6715 28.8916 36.9551C31.9906 38.2388 35.4388 38.4082 38.6487 37.4344C41.8585 36.4607 44.6315 34.4041 46.4951 31.6151C48.3586 28.8261 49.1974 25.4772 48.8686 22.139C48.5399 18.8008 47.0638 15.68 44.6919 13.3081C43.3488 11.9575 41.751 10.8868 39.9913 10.1578C38.2315 9.42892 36.3446 9.05632 34.4398 9.06161ZM34.4398 0C47.4523 0 58 10.5477 58 23.5602C58 36.5726 47.4523 47.1204 34.4398 47.1204C21.4274 47.1204 10.8796 36.5726 10.8796 23.5602C10.8796 10.5477 21.4274 0 34.4398 0Z" fill="#9B51E0"/>
<path opacity="0.6" d="M0.788744 50.1446L12.0818 38.8516C12.3349 38.5994 12.6352 38.3995 12.9656 38.2635C13.296 38.1274 13.65 38.0578 14.0074 38.0587H15.8537L19.9314 42.1364V43.9827C19.9323 44.3401 19.8627 44.6941 19.7266 45.0245C19.5906 45.3549 19.3907 45.6552 19.1385 45.9083L7.84547 57.2014C7.59388 57.4545 7.29473 57.6553 6.96524 57.7924C6.63575 57.9294 6.28241 58 5.92554 58C5.56868 58 5.21534 57.9294 4.88585 57.7924C4.55635 57.6553 4.2572 57.4545 4.00561 57.2014L0.800072 53.9958C0.289755 53.4856 0.00210762 52.7942 -1.52588e-05 52.0726C-0.00213623 51.351 0.281437 50.6578 0.788744 50.1446Z" fill="#9B51E0"/>
<path d="M31.9026 27.1034V22.6064H34.3062C35.2194 22.6064 35.8999 22.3651 36.3479 21.8827C36.7959 21.383 37.0199 20.78 37.0199 20.0736C37.0199 19.5739 36.9165 19.1431 36.7097 18.7813C36.5202 18.4023 36.2359 18.1093 35.8569 17.9026C35.495 17.6786 35.0557 17.5666 34.5388 17.5666C33.9874 17.5666 33.5222 17.6872 33.1431 17.9284C32.7641 18.1524 32.4712 18.4539 32.2644 18.833C32.0577 19.2121 31.9543 19.6428 31.9543 20.1252H28C28 18.9881 28.2498 17.9629 28.7495 17.0497C29.2664 16.1193 30.0245 15.3784 31.0239 14.827C32.0232 14.2757 33.2293 14 34.6421 14C35.9516 14 37.0802 14.2498 38.0278 14.7495C38.9755 15.2319 39.7078 15.9039 40.2247 16.7654C40.7416 17.6269 41 18.6176 41 19.7376V20.0477C41 21.1504 40.7329 22.1239 40.1988 22.9682C39.6819 23.7952 38.9238 24.45 37.9245 24.9324C36.9251 25.3976 35.7104 25.6474 34.2803 25.6819L36.0636 24.2604L36.0119 27.1034H31.9026Z" fill="#9B51E0"/>
<path opacity="0.6" d="M31.5924 29.2744V33.4354H36.2962V29.2744H31.5924Z" fill="#9B51E0"/>
</svg>
